<svg width="0" height="0" class="hidden">
  <symbol fill="none" xmlns="http://www.w3.org/2000/svg" viewBox="0 0 24 31" id="arrow-down">
    <path d="M10.94 30.06a1.5 1.5 0 002.12 0l9.547-9.545a1.5 1.5 0 10-2.122-2.122L12 26.88l-8.485-8.486a1.5 1.5 0 10-2.122 2.122l9.546 9.546zM10.5 0v29h3V0h-3z" fill="#fff"></path>
  </symbol>
  <symbol fill="none" xmlns="http://www.w3.org/2000/svg" viewBox="0 0 39 42" id="phone-icon">
    <path d="M34.632 29.24c-2.528-2.105-5.093-3.38-7.59-1.278l-1.491 1.27c-1.091.922-3.12 5.229-10.961-3.55-7.84-8.77-3.175-10.135-2.082-11.048l1.499-1.272c2.484-2.106 1.546-4.757-.245-7.486l-1.081-1.653c-1.8-2.722-3.76-4.51-6.25-2.408L5.086 2.96c-1.1.78-4.177 3.317-4.924 8.136-.898 5.782 1.935 12.403 8.427 19.668 6.483 7.268 12.83 10.919 18.843 10.855 4.997-.052 8.015-2.662 8.959-3.61l1.35-1.147c2.484-2.1.94-4.24-1.589-6.35l-1.52-1.272z" fill="#1C2E58"></path>
  </symbol>
</svg>